
  <svg width="329.25" height="48" viewBox="0 0 1756 256" fill="none" xmlns="http://www.w3.org/2000/svg" xmlns:xlink="http://www.w3.org/1999/xlink" version="1.1">
    
        <g transform="translate(0, 0)">
          <svg xmlns="http://www.w3.org/2000/svg" width="256" height="256" fill="none" viewBox="0 0 256 256"><rect width="256" height="256" fill="#007ACC" rx="60"/><path fill="#fff" d="M56.6112 128.849L56.5299 139.333H73.1902H89.8505L89.8505 186.673V234.012H101.635H113.419V186.673L113.419 139.333H130.079H146.739V129.052C146.739 123.363 146.618 118.609 146.455 118.487C146.333 118.325 126.056 118.243 101.472 118.284L56.7331 118.406L56.6112 128.849Z"/><path fill="#fff" d="M206.567 118.108C213.068 119.734 218.026 122.619 222.577 127.332C224.934 129.852 228.428 134.444 228.713 135.541C228.794 135.866 217.66 143.343 210.915 147.528C210.671 147.691 209.695 146.634 208.598 145.009C205.307 140.214 201.853 138.141 196.57 137.776C188.809 137.247 183.811 141.311 183.852 148.097C183.852 150.088 184.136 151.266 184.949 152.892C186.655 156.427 189.825 158.54 199.781 162.847C218.107 170.731 225.949 175.932 230.826 183.327C236.271 191.576 237.49 204.742 233.792 214.535C229.729 225.181 219.651 232.414 205.469 234.812C201.081 235.584 190.678 235.462 185.965 234.609C175.684 232.78 165.932 227.701 159.918 221.037C157.561 218.436 152.969 211.65 153.254 211.162C153.375 211 154.432 210.35 155.61 209.659C156.748 209.009 161.056 206.53 165.119 204.173L172.474 199.906L174.018 202.182C176.172 205.473 180.885 209.984 183.73 211.487C191.897 215.795 203.113 215.185 208.639 210.228C210.996 208.074 211.971 205.839 211.971 202.548C211.971 199.581 211.605 198.281 210.061 196.046C208.07 193.202 204.007 190.804 192.466 185.806C179.26 180.117 173.571 176.582 168.37 170.974C165.363 167.724 162.518 162.522 161.34 158.174C160.365 154.558 160.121 145.496 160.893 141.839C163.615 129.08 173.246 120.181 187.143 117.539C191.654 116.686 202.137 117.011 206.567 118.108Z"/></svg>
        </g>
         
        <g transform="translate(300, 0)">
          <svg xmlns="http://www.w3.org/2000/svg" width="256" height="256" fill="none" viewBox="0 0 256 256"><rect width="256" height="256" fill="#242938" rx="60"/><path fill="#00D8FF" d="M128.001 146.951C138.305 146.951 146.657 138.598 146.657 128.295C146.657 117.992 138.305 109.639 128.001 109.639C117.698 109.639 109.345 117.992 109.345 128.295C109.345 138.598 117.698 146.951 128.001 146.951Z"/><path fill-rule="evenodd" stroke="#00D8FF" stroke-width="8.911" d="M128.002 90.3633C153.05 90.3633 176.319 93.9575 193.864 99.9976C215.003 107.275 228 118.306 228 128.295C228 138.704 214.226 150.423 191.525 157.944C174.363 163.63 151.779 166.598 128.002 166.598C103.624 166.598 80.5389 163.812 63.1834 157.881C41.2255 150.376 28 138.506 28 128.295C28 118.387 40.4096 107.441 61.2515 100.175C78.8617 94.0353 102.705 90.3633 127.998 90.3633H128.002Z" clip-rule="evenodd"/><path fill-rule="evenodd" stroke="#00D8FF" stroke-width="8.911" d="M94.9811 109.438C107.495 87.7402 122.232 69.3783 136.23 57.1971C153.094 42.5206 169.144 36.7728 177.796 41.7623C186.813 46.9623 190.084 64.7496 185.259 88.1712C181.614 105.879 172.9 126.925 161.021 147.523C148.842 168.641 134.897 187.247 121.09 199.315C103.619 214.587 86.7284 220.114 77.8833 215.013C69.3003 210.067 66.0181 193.846 70.1356 172.161C73.6145 153.838 82.3451 131.349 94.977 109.438L94.9811 109.438Z" clip-rule="evenodd"/><path fill-rule="evenodd" stroke="#00D8FF" stroke-width="8.911" d="M95.0123 147.578C82.4633 125.904 73.9194 103.962 70.3531 85.7517C66.0602 63.8109 69.0954 47.0355 77.7401 42.0315C86.7485 36.8163 103.792 42.866 121.674 58.7437C135.194 70.7479 149.077 88.8052 160.99 109.383C173.204 130.481 182.358 151.856 185.919 169.844C190.425 192.608 186.778 210.001 177.941 215.116C169.367 220.08 153.676 214.825 136.945 200.427C122.809 188.263 107.685 169.468 95.0123 147.578Z" clip-rule="evenodd"/></svg>
        </g>
         
        <g transform="translate(600, 0)">
          <svg xmlns="http://www.w3.org/2000/svg" width="256" height="256" fill="none" viewBox="0 0 256 256"><rect width="256" height="256" fill="#D30001" rx="60"/><path fill="#fff" d="M227.87 116.783L228 116.912C228 116.912 226.501 117.97 224.914 119.293C174.825 82.2557 144.226 99.716 134.614 104.39C90.9629 128.747 103.577 188.54 103.834 189.733L103.838 189.751H34.1729C34.1729 189.751 36.8183 163.649 55.3368 132.785C73.8553 101.921 105.425 78.552 131.086 76.2593C180.566 71.3028 225.159 114.13 227.87 116.783ZM106.483 172.115L116.007 175.554C116.448 179.008 117.073 182.278 117.728 185.262L118.123 187.018L107.541 183.226C107.1 180.58 106.66 176.788 106.483 172.115ZM32.4091 143.543L42.5503 147.247C41.3157 150.102 39.7436 153.767 38.6018 156.647L38.1411 157.829L28 154.125C28.8818 151.744 30.7336 147.335 32.4091 143.543ZM110.452 140.016L116.801 145.042C116.095 147.794 115.559 150.545 115.192 153.296L114.949 155.36L107.806 149.716C108.511 146.541 109.305 143.279 110.452 140.016ZM126.06 115.413L130.028 121.409C128.476 123.032 127.037 124.654 125.756 126.367L124.825 127.67L120.593 121.321C122.18 119.293 124.032 117.265 126.06 115.413ZM62.9206 102.362L69.1816 107.829C67.5943 109.482 66.0567 111.235 64.6058 113.012L63.1852 114.795L56.3951 108.975C58.4233 106.771 60.6278 104.566 62.9206 102.362ZM150.31 102.009L152.25 107.829C150.205 108.464 148.159 109.268 146.113 110.196L144.578 110.915L142.55 104.831C144.755 103.861 147.312 102.891 150.31 102.009ZM170.945 99.8924C173.203 100.034 175.517 100.287 177.887 100.699L179.675 101.039L179.323 106.506C176.995 106.012 174.667 105.688 172.339 105.533L170.593 105.448L170.945 99.8924ZM98.5467 75.5538L102.515 81.6384C100.795 82.4982 99.1255 83.4572 97.4307 84.4782L95.7248 85.5185L91.6684 79.3457C94.0493 77.9347 96.3421 76.7002 98.5467 75.5538ZM171.122 72.2028C176.369 73.7019 178.626 74.7291 179.53 75.2101L179.675 75.2892L179.323 81.1975C177.441 80.4333 175.56 79.7082 173.653 79.0223L170.769 78.0229L171.122 72.2028ZM137.436 67L139.199 72.3792H138.317C136.399 72.3792 134.481 72.4288 132.563 72.5652L130.646 72.7319L128.97 67.5291C131.88 67.1764 134.702 67 137.436 67Z"/></svg>
        </g>
         
        <g transform="translate(900, 0)">
          <svg xmlns="http://www.w3.org/2000/svg" width="256" height="256" fill="none" viewBox="0 0 256 256"><rect width="256" height="256" fill="#242938" rx="60"/><path fill="#FF2D20" fill-rule="evenodd" d="M215.846 78.3138C215.91 78.5572 215.944 78.8083 215.944 79.0605V118.26C215.944 118.763 215.813 119.257 215.565 119.692C215.316 120.128 214.958 120.489 214.528 120.739L182.082 139.681V177.226C182.082 178.248 181.547 179.191 180.673 179.706L112.945 219.241C112.79 219.33 112.621 219.387 112.452 219.448C112.388 219.47 112.329 219.509 112.262 219.527C111.788 219.653 111.291 219.653 110.817 219.527C110.74 219.505 110.669 219.462 110.595 219.434C110.44 219.377 110.278 219.327 110.13 219.241L42.4164 179.706C41.9862 179.455 41.6288 179.094 41.3801 178.659C41.1314 178.224 41.0003 177.729 41 177.226V59.6288C41 59.3715 41.0352 59.1214 41.0986 58.8785C41.1198 58.7963 41.1691 58.7213 41.1973 58.6391C41.2501 58.4891 41.2995 58.3355 41.377 58.1961C41.4298 58.1032 41.5073 58.0282 41.5708 57.9425C41.6518 57.8281 41.7258 57.7102 41.8209 57.6102C41.9019 57.528 42.0076 57.4673 42.0993 57.3959C42.2014 57.3101 42.293 57.2172 42.4093 57.1493H42.4128L76.2714 37.3818C76.7001 37.1317 77.1861 37 77.6807 37C78.1753 37 78.6613 37.1317 79.09 37.3818L112.949 57.1493H112.956C113.068 57.2208 113.164 57.3101 113.266 57.3923C113.357 57.4637 113.459 57.528 113.54 57.6066C113.639 57.7102 113.71 57.8281 113.794 57.9425C113.854 58.0282 113.935 58.1032 113.984 58.1961C114.065 58.339 114.111 58.4891 114.168 58.6391C114.196 58.7213 114.245 58.7963 114.266 58.8821C114.331 59.1255 114.364 59.3766 114.365 59.6288V133.079L142.579 116.606V79.0569C142.579 78.8068 142.614 78.5531 142.678 78.3138C142.703 78.228 142.748 78.153 142.777 78.0708C142.833 77.9208 142.882 77.7672 142.96 77.6278C143.013 77.5349 143.09 77.4599 143.15 77.3742C143.235 77.2598 143.305 77.1419 143.404 77.0419C143.485 76.9597 143.587 76.899 143.679 76.8275C143.784 76.7418 143.876 76.6489 143.989 76.581H143.993L177.855 56.8135C178.283 56.563 178.769 56.4311 179.264 56.4311C179.759 56.4311 180.245 56.563 180.673 56.8135L214.532 76.581C214.652 76.6525 214.743 76.7418 214.849 76.824C214.937 76.8954 215.039 76.9597 215.12 77.0383C215.219 77.1419 215.289 77.2598 215.374 77.3742C215.437 77.4599 215.515 77.5349 215.564 77.6278C215.645 77.7672 215.691 77.9208 215.747 78.0708C215.779 78.153 215.825 78.228 215.846 78.3138H215.846ZM210.3 116.606V84.0086L198.451 90.9253L182.082 100.482V133.079L210.303 116.606H210.3ZM176.441 175.572V142.954L160.34 152.279L114.361 178.888V211.813L176.441 175.572ZM46.6443 64.5769V175.572L108.717 211.81V178.891L76.289 160.281L76.2784 160.274L76.2643 160.267C76.1551 160.203 76.0635 160.11 75.9613 160.031C75.8732 159.96 75.7711 159.903 75.6936 159.824L75.6866 159.814C75.595 159.724 75.5315 159.614 75.454 159.513C75.3835 159.417 75.299 159.335 75.2426 159.235L75.2386 159.224C75.1752 159.117 75.1364 158.988 75.0906 158.867C75.0448 158.76 74.9849 158.66 74.9568 158.545V158.541C74.9216 158.406 74.9145 158.263 74.9004 158.123C74.8863 158.016 74.8581 157.909 74.8581 157.802V157.795V81.0505L58.493 71.49L46.6443 64.5805V64.5769ZM77.6842 43.1624L49.4735 59.6288L77.6772 76.0951L105.884 59.6252L77.6772 43.1624H77.6842ZM92.3551 145.926L108.721 136.373V64.5769L96.8719 71.4936L80.5029 81.0504V152.847L92.3551 145.926ZM179.264 62.5941L151.056 79.0605L179.264 95.5268L207.467 79.0569L179.264 62.5941ZM176.441 100.482L160.072 90.9253L148.224 84.0086V116.606L164.589 126.159L176.441 133.079V100.482ZM111.536 173.94L152.909 149.988L173.591 138.02L145.405 121.564L112.952 140.51L83.3743 157.777L111.536 173.94Z" clip-rule="evenodd"/></svg>
        </g>
         
        <g transform="translate(1200, 0)">
          <svg xmlns="http://www.w3.org/2000/svg" width="256" height="256" fill="none" viewBox="0 0 256 256"><rect width="256" height="256" fill="#E43717" rx="60"/><g clip-path="url(#clip0_5_31)"><path fill="url(#paint0_linear_5_31)" fill-rule="evenodd" d="M177.454 156.477L74.6851 217.5L207.751 208.471L218 74.2944L177.454 156.477Z" clip-rule="evenodd"/><path fill="url(#paint1_linear_5_31)" fill-rule="evenodd" d="M207.969 208.379L196.532 129.44L165.379 170.577L207.969 208.379Z" clip-rule="evenodd"/><path fill="url(#paint2_linear_5_31)" fill-rule="evenodd" d="M208.124 208.379L124.334 201.802L75.1301 217.329L208.124 208.379Z" clip-rule="evenodd"/><path fill="url(#paint3_linear_5_31)" fill-rule="evenodd" d="M75.2482 217.346L96.1799 148.773L50.1193 158.622L75.2482 217.346Z" clip-rule="evenodd"/><path fill="url(#paint4_linear_5_31)" fill-rule="evenodd" d="M165.371 170.804L146.111 95.3623L90.9924 147.028L165.371 170.804Z" clip-rule="evenodd"/><path fill="url(#paint5_linear_5_31)" fill-rule="evenodd" d="M213.63 96.4253L161.528 53.8714L147.019 100.777L213.63 96.4253Z" clip-rule="evenodd"/><path fill="url(#paint6_linear_5_31)" fill-rule="evenodd" d="M189.264 38.6995L158.621 55.6339L139.288 38.4724L189.264 38.6995Z" clip-rule="evenodd"/><path fill="url(#paint7_linear_5_31)" fill-rule="evenodd" d="M38 181.624L50.837 158.212L40.4529 130.321L38 181.624Z" clip-rule="evenodd"/><path fill="#fff" fill-rule="evenodd" d="M39.7625 129.44L50.2101 159.075L95.6076 148.89L147.437 100.722L162.064 54.262L139.033 38L99.8766 52.654C87.5402 64.1283 63.6013 86.8316 62.7383 87.2586C61.8843 87.6946 46.9305 115.958 39.7625 129.44Z" clip-rule="evenodd"/><path fill="url(#paint8_linear_5_31)" fill-rule="evenodd" d="M76.4475 76.2022C103.184 49.6923 137.653 34.0299 150.88 47.3757C164.1 60.7215 150.081 93.1547 123.344 119.655C96.607 146.156 62.5657 162.682 49.3471 149.336C36.1194 135.999 49.7105 102.703 76.4475 76.2022V76.2022Z" clip-rule="evenodd"/><path fill="url(#paint9_linear_5_31)" fill-rule="evenodd" d="M75.2483 217.319L96.0165 148.527L164.989 170.686C140.051 194.07 112.315 213.839 75.2483 217.319Z" clip-rule="evenodd"/><path fill="url(#paint10_linear_5_31)" fill-rule="evenodd" d="M147.528 100.586L165.235 170.722C186.066 148.818 204.763 125.27 213.92 96.1436L147.528 100.586V100.586Z" clip-rule="evenodd"/><path fill="url(#paint11_linear_5_31)" fill-rule="evenodd" d="M213.739 96.498C220.825 75.112 222.461 44.4322 189.045 38.7359L161.627 53.8805L213.739 96.498V96.498Z" clip-rule="evenodd"/><path fill="#9E1209" fill-rule="evenodd" d="M38 181.315C38.9812 216.611 64.4463 217.137 75.2937 217.447L50.2374 158.93L38 181.315Z" clip-rule="evenodd"/><path fill="url(#paint12_radial_5_31)" fill-rule="evenodd" d="M147.627 100.695C163.635 110.534 195.896 130.294 196.55 130.657C197.567 131.23 210.459 108.917 213.385 96.3072L147.627 100.695V100.695Z" clip-rule="evenodd"/><path fill="url(#paint13_radial_5_31)" fill-rule="evenodd" d="M95.9893 148.527L123.753 202.092C140.169 193.189 153.025 182.342 164.799 170.722L95.9893 148.527Z" clip-rule="evenodd"/><path fill="url(#paint14_linear_5_31)" fill-rule="evenodd" d="M50.1284 159.002L46.1946 205.844C53.617 215.983 63.8285 216.864 74.5396 216.074C66.7901 196.787 51.3094 158.221 50.1284 159.002V159.002Z" clip-rule="evenodd"/><path fill="url(#paint15_linear_5_31)" fill-rule="evenodd" d="M161.464 53.9986L216.619 61.7389C213.676 49.2653 204.636 41.2161 189.228 38.6995L161.464 53.9986Z" clip-rule="evenodd"/></g><defs><linearGradient id="paint0_linear_5_31" x1="196.145" x2="158.172" y1="233.825" y2="166.782" gradientUnits="userSpaceOnUse"><stop stop-color="#FB7655"/><stop offset=".41" stop-color="#E42B1E"/><stop offset=".99" stop-color="#900"/><stop offset="1" stop-color="#900"/></linearGradient><linearGradient id="paint1_linear_5_31" x1="215.061" x2="166.123" y1="177.506" y2="144.666" gradientUnits="userSpaceOnUse"><stop stop-color="#871101"/><stop offset=".99" stop-color="#911209"/><stop offset="1" stop-color="#911209"/></linearGradient><linearGradient id="paint2_linear_5_31" x1="175.905" x2="126.969" y1="235.857" y2="203.017" gradientUnits="userSpaceOnUse"><stop stop-color="#871101"/><stop offset=".99" stop-color="#911209"/><stop offset="1" stop-color="#911209"/></linearGradient><linearGradient id="paint3_linear_5_31" x1="73.155" x2="80.742" y1="153.734" y2="203.038" gradientUnits="userSpaceOnUse"><stop stop-color="#fff"/><stop offset=".23" stop-color="#E57252"/><stop offset=".46" stop-color="#DE3B20"/><stop offset=".99" stop-color="#A60003"/><stop offset="1" stop-color="#A60003"/></linearGradient><linearGradient id="paint4_linear_5_31" x1="125.336" x2="128.131" y1="107.695" y2="158.014" gradientUnits="userSpaceOnUse"><stop stop-color="#fff"/><stop offset=".23" stop-color="#E4714E"/><stop offset=".56" stop-color="#BE1A0D"/><stop offset=".99" stop-color="#A80D00"/><stop offset="1" stop-color="#A80D00"/></linearGradient><linearGradient id="paint5_linear_5_31" x1="171.642" x2="180.01" y1="61.186" y2="97.249" gradientUnits="userSpaceOnUse"><stop stop-color="#fff"/><stop offset=".18" stop-color="#E46342"/><stop offset=".4" stop-color="#C82410"/><stop offset=".99" stop-color="#A80D00"/><stop offset="1" stop-color="#A80D00"/></linearGradient><linearGradient id="paint6_linear_5_31" x1="146.089" x2="182.15" y1="48.485" y2="30.455" gradientUnits="userSpaceOnUse"><stop stop-color="#fff"/><stop offset=".54" stop-color="#C81F11"/><stop offset=".99" stop-color="#BF0905"/><stop offset="1" stop-color="#BF0905"/></linearGradient><linearGradient id="paint7_linear_5_31" x1="41.546" x2="44.514" y1="141.164" y2="170.879" gradientUnits="userSpaceOnUse"><stop stop-color="#fff"/><stop offset=".31" stop-color="#DE4024"/><stop offset=".99" stop-color="#BF190B"/><stop offset="1" stop-color="#BF190B"/></linearGradient><linearGradient id="paint8_linear_5_31" x1="21.142" x2="160.661" y1="178.912" y2="35.448" gradientUnits="userSpaceOnUse"><stop stop-color="#BD0012"/><stop offset=".07" stop-color="#fff"/><stop offset=".17" stop-color="#fff"/><stop offset=".27" stop-color="#C82F1C"/><stop offset=".33" stop-color="#820C01"/><stop offset=".46" stop-color="#A31601"/><stop offset=".72" stop-color="#B31301"/><stop offset=".99" stop-color="#E82609"/><stop offset="1" stop-color="#E82609"/></linearGradient><linearGradient id="paint9_linear_5_31" x1="128.009" x2="85.985" y1="193.383" y2="183.011" gradientUnits="userSpaceOnUse"><stop stop-color="#8C0C01"/><stop offset=".54" stop-color="#990C00"/><stop offset=".99" stop-color="#A80D0E"/><stop offset="1" stop-color="#A80D0E"/></linearGradient><linearGradient id="paint10_linear_5_31" x1="200.19" x2="162.857" y1="142.944" y2="109.484" gradientUnits="userSpaceOnUse"><stop stop-color="#7E110B"/><stop offset=".99" stop-color="#9E0C00"/><stop offset="1" stop-color="#9E0C00"/></linearGradient><linearGradient id="paint11_linear_5_31" x1="213.906" x2="195.31" y1="81.55" y2="61.67" gradientUnits="userSpaceOnUse"><stop stop-color="#79130D"/><stop offset=".99" stop-color="#9E120B"/><stop offset="1" stop-color="#9E120B"/></linearGradient><radialGradient id="paint12_radial_5_31" cx="0" cy="0" r="1" gradientTransform="translate(168.67 110.124) scale(45.7496)" gradientUnits="userSpaceOnUse"><stop stop-color="#A80D00"/><stop offset=".99" stop-color="#7E0E08"/><stop offset="1" stop-color="#7E0E08"/></radialGradient><radialGradient id="paint13_radial_5_31" cx="0" cy="0" r="1" gradientTransform="translate(105.313 170.414) scale(60.818)" gradientUnits="userSpaceOnUse"><stop stop-color="#A30C00"/><stop offset=".99" stop-color="#800E08"/><stop offset="1" stop-color="#800E08"/></radialGradient><linearGradient id="paint14_linear_5_31" x1="62.229" x2="47.075" y1="217.279" y2="165.863" gradientUnits="userSpaceOnUse"><stop stop-color="#8B2114"/><stop offset=".43" stop-color="#9E100A"/><stop offset=".99" stop-color="#B3100C"/><stop offset="1" stop-color="#B3100C"/></linearGradient><linearGradient id="paint15_linear_5_31" x1="178.491" x2="212.466" y1="46.901" y2="61.899" gradientUnits="userSpaceOnUse"><stop stop-color="#B31000"/><stop offset=".44" stop-color="#910F08"/><stop offset=".99" stop-color="#791C12"/><stop offset="1" stop-color="#791C12"/></linearGradient><clipPath id="clip0_5_31"><rect width="180" height="179.5" fill="#fff" transform="translate(38 38)"/></clipPath></defs></svg>
        </g>
         
        <g transform="translate(1500, 0)">
          <svg xmlns="http://www.w3.org/2000/svg" width="256" height="256" fill="none" viewBox="0 0 256 256"><rect width="256" height="256" fill="#E43717" rx="60"/><path fill="#fff" d="M226.574 125.551L218.184 120.353C218.113 119.535 218.033 118.719 217.945 117.907L225.169 111.18C225.903 110.496 226.232 109.483 226.033 108.504C225.84 107.52 225.15 106.71 224.212 106.364L214.98 102.924C214.749 102.125 214.506 101.332 214.258 100.535L220.011 92.5468C220.598 91.7345 220.718 90.6777 220.336 89.7566C219.953 88.8335 219.118 88.1723 218.138 88.0098L208.409 86.4275C208.031 85.6898 207.637 84.9636 207.239 84.2488L211.33 75.2668C211.748 74.3533 211.662 73.2983 211.104 72.4575C210.548 71.6242 209.606 71.1369 208.6 71.1751L198.719 71.5191C198.209 70.8808 197.689 70.2483 197.159 69.6272L199.434 60.0144C199.663 59.0379 199.375 58.0078 198.664 57.3007C197.958 56.5936 196.934 56.3012 195.949 56.5305L186.336 58.8047C185.713 58.2772 185.08 57.7555 184.44 57.2453L184.786 47.365C184.824 46.3655 184.336 45.4157 183.503 44.8615C182.668 44.3034 181.611 44.2193 180.693 44.634L171.729 48.7238C171.005 48.3263 170.279 47.9326 169.551 47.5523L167.964 37.8249C167.804 36.8387 167.142 36.0017 166.217 35.6271C165.294 35.243 164.23 35.3672 163.427 35.952L155.438 41.7044C154.65 41.454 153.859 41.2132 153.068 40.9839L149.627 31.7534C149.277 30.8131 148.467 30.1232 147.487 29.9283C146.504 29.7353 145.499 30.0621 144.811 30.7921L138.083 38.016C137.271 37.9262 136.453 37.844 135.637 37.7771L130.438 29.3683C129.912 28.5179 128.981 28 127.972 28C126.963 28 126.042 28.5179 125.526 29.3683L120.327 37.7771C119.509 37.844 118.691 37.9262 117.881 38.016L111.153 30.7921C110.471 30.0621 109.458 29.7353 108.477 29.9283C107.493 30.1251 106.682 30.8131 106.336 31.7534L102.896 40.9839C102.097 41.2132 101.306 41.4559 100.526 41.7044L92.5368 35.952C91.7245 35.3653 90.6657 35.2411 89.7463 35.6271C88.8232 36.0093 88.16 36.8464 87.9994 37.8249L86.413 47.5523C85.6791 47.9326 84.9528 48.3243 84.2342 48.7238L75.2702 44.634C74.3585 44.2174 73.3016 44.3034 72.4606 44.8615C71.6273 45.4157 71.1399 46.3655 71.1781 47.365L71.5221 57.2453C70.8838 57.7555 70.2511 58.2772 69.6261 58.8047L60.0123 56.5305C59.0356 56.3031 58.0054 56.5936 57.2983 57.3007C56.5873 58.0097 56.2987 59.0321 56.528 60.0144L58.7833 69.6272C58.2577 70.2502 57.7379 70.8808 57.2275 71.5191L47.3461 71.1751C46.3504 71.1465 45.3966 71.6242 44.8423 72.4575C44.2842 73.2869 44.2002 74.3494 44.6149 75.2668L48.7051 84.2488C48.3075 84.9693 47.9138 85.6955 47.5335 86.4275L37.805 88.0098C36.8168 88.1704 35.9835 88.8316 35.607 89.7566C35.2247 90.6835 35.3489 91.7441 35.9319 92.5468L41.6849 100.535C41.4345 101.324 41.1918 102.117 40.9624 102.924L31.7309 106.364C30.7943 106.714 30.1043 107.524 29.9094 108.504C29.7144 109.487 30.0413 110.492 30.7733 111.18L37.998 117.907C37.9082 118.719 37.8279 119.537 37.7591 120.353L29.3685 125.551C28.518 126.077 28 127.005 28 128.016C28 129.027 28.518 129.947 29.3685 130.463L37.7591 135.661C37.8279 136.479 37.9082 137.295 37.998 138.107L30.7733 144.834C30.0413 145.516 29.7144 146.529 29.9094 147.509C30.1043 148.494 30.7943 149.302 31.7309 149.65L40.9624 153.09C41.1918 153.889 41.4345 154.682 41.6849 155.479L35.9319 163.467C35.347 164.281 35.2228 165.338 35.607 166.257C35.9911 167.184 36.8264 167.845 37.8241 168.004L47.5526 169.586C47.9329 170.324 48.3228 171.05 48.7242 171.765L44.634 180.728C44.2174 181.639 44.3034 182.696 44.8615 183.537C45.4196 184.372 46.3695 184.86 47.3653 184.819L57.2275 184.474C57.7417 185.116 58.2597 185.744 58.7872 186.369L56.5318 195.982C56.3025 196.957 56.5911 197.97 57.3021 198.677C58.0074 199.39 59.0337 199.674 60.0161 199.445L69.63 197.19C70.2549 197.721 70.8876 198.237 71.526 198.746L71.1819 208.626C71.1437 209.625 71.6311 210.575 72.4644 211.129C73.2939 211.685 74.3566 211.77 75.274 211.353L84.238 207.263C84.9605 207.665 85.6868 208.054 86.4169 208.435L88.0032 218.162C88.1638 219.152 88.8251 219.989 89.7502 220.379C90.6733 220.763 91.7379 220.639 92.5407 220.056L100.53 214.304C101.319 214.554 102.112 214.799 102.919 215.028L106.359 224.258C106.709 225.195 107.519 225.889 108.5 226.08C109.482 226.278 110.488 225.95 111.176 225.216L117.904 217.992C118.716 218.086 119.534 218.164 120.35 218.237L125.549 226.626C126.072 227.473 127.003 227.995 127.995 227.995C128.987 227.995 129.926 227.475 130.461 226.626L135.66 218.237C136.478 218.164 137.294 218.086 138.106 217.992L144.834 225.216C145.516 225.95 146.529 226.278 147.51 226.08C148.494 225.887 149.304 225.195 149.65 224.258L153.091 215.028C153.889 214.799 154.683 214.554 155.48 214.304L163.469 220.056C164.281 220.639 165.34 220.763 166.259 220.379C167.184 219.999 167.846 219.16 168.006 218.162L169.593 208.435C170.327 208.054 171.053 207.659 171.772 207.263L180.736 211.353C181.647 211.77 182.704 211.685 183.545 211.129C184.378 210.571 184.864 209.625 184.828 208.626L184.484 198.746C185.122 198.235 185.755 197.721 186.378 197.19L195.991 199.445C196.968 199.674 197.998 199.39 198.706 198.677C199.417 197.968 199.705 196.949 199.476 195.982L197.22 186.369C197.748 185.744 198.268 185.116 198.776 184.474L208.658 184.819C209.653 184.86 210.607 184.372 211.161 183.537C211.72 182.704 211.806 181.643 211.387 180.728L207.297 171.765C207.696 171.041 208.088 170.314 208.467 169.586L218.195 168.004C219.185 167.845 220.018 167.184 220.393 166.257C220.775 165.334 220.655 164.27 220.068 163.467L214.315 155.479C214.564 154.689 214.806 153.896 215.038 153.09L224.269 149.65C225.208 149.298 225.899 148.49 226.091 147.509C226.289 146.527 225.961 145.522 225.227 144.834L218.002 138.107C218.09 137.295 218.17 136.477 218.241 135.661L226.632 130.463C227.482 129.939 228 129.008 228 128.016C228 127.025 227.484 126.086 226.633 125.551H226.574ZM170.382 195.306C167.171 194.614 165.145 191.445 165.833 188.235C166.519 185.024 169.675 182.979 172.886 183.667C176.097 184.353 178.142 187.527 177.454 190.738C176.766 193.949 173.612 195.994 170.401 195.306H170.382ZM167.534 176.004C164.61 175.377 161.724 177.238 161.112 180.17L158.131 194.082C148.937 198.249 138.635 200.58 127.932 200.58C116.923 200.58 106.526 198.153 97.1603 193.796L94.1786 179.883C93.5517 176.959 90.681 175.086 87.7567 175.717L75.467 178.354C73.1926 176.004 71.0711 173.5 69.1215 170.863H128.945C129.622 170.863 130.073 170.741 130.073 170.125V148.912C130.073 148.297 129.622 148.175 128.945 148.175H111.457V134.778H130.359C132.085 134.778 139.591 135.271 141.98 144.868C142.731 147.811 144.388 157.405 145.516 160.482C146.64 163.922 151.212 170.802 156.086 170.802H185.902C186.24 170.802 186.601 170.763 186.982 170.695C184.917 173.504 182.643 176.16 180.216 178.645L167.639 175.95L167.534 176.004ZM84.7751 195.019C81.5641 195.711 78.4104 193.666 77.7224 190.451C77.0362 187.241 79.0756 184.068 82.2904 183.38C85.5014 182.694 88.655 184.739 89.3431 187.948C90.0292 191.159 87.988 194.331 84.7751 195.019ZM62.0306 103.096C63.3609 106.096 62.0077 109.613 59.0108 110.95C56.0101 112.282 52.5124 110.928 51.1745 107.931C49.8366 104.934 51.1974 101.414 54.1943 100.076C57.1951 98.7463 60.6927 100.099 62.0306 103.096ZM55.0544 119.608L67.8601 113.913C70.5932 112.699 71.8356 109.498 70.6124 106.765L67.9748 100.803H78.334V147.433H57.5009C55.687 141.05 54.7104 134.323 54.7104 127.367C54.7104 124.71 54.8537 122.092 55.1289 119.512L55.0544 119.608ZM111.247 115.078V101.319H135.902C137.177 101.319 144.904 102.792 144.904 108.562C144.904 113.358 138.979 115.078 134.106 115.078H111.17H111.247ZM200.886 127.462C200.886 129.289 200.819 131.093 200.686 132.89H193.174C192.423 132.89 192.121 133.383 192.121 134.118V137.558C192.121 145.661 187.553 147.439 183.539 147.878C179.717 148.308 175.493 146.281 174.977 143.941C172.721 131.271 168.975 128.576 163.05 123.875C170.409 119.212 178.054 112.313 178.054 103.044C178.054 93.0876 171.231 86.8192 166.586 83.7424C160.05 79.4425 152.825 78.5825 150.875 78.5825H73.2767C83.8079 66.8485 98.1236 58.5161 114.178 55.4584L123.334 65.052C125.398 67.2116 128.819 67.3071 130.998 65.2279L141.242 55.4431C162.649 59.4373 180.806 72.7766 191.318 91.1803L184.304 107.004C183.094 109.737 184.329 112.948 187.056 114.152L200.55 120.152C200.783 122.541 200.905 124.968 200.905 127.414L200.886 127.462ZM123.288 47.3879C125.658 45.1137 129.423 45.2093 131.678 47.5809C133.934 49.9507 133.857 53.7155 131.481 55.9897C129.111 58.2639 125.346 58.1683 123.091 55.7948C120.836 53.425 120.912 49.6602 123.288 47.386V47.3879ZM192.859 103.383C194.187 100.382 197.694 99.0253 200.695 100.363C203.696 101.693 205.053 105.217 203.715 108.218C202.387 111.218 198.879 112.575 195.879 111.237C192.878 109.907 191.521 106.383 192.859 103.383Z"/></svg>
        </g>
        
  </svg>
  